<svg width="250px" height="41px" viewBox="0 0 250 41" xmlns="http://www.w3.org/2000/svg">
    <path fill="#000000" fill-opacity=".6" d="M245.8 5c.2.4.6 1.1 1.2 2.3 2.1 4.5 3.1 8.9 3 13.3-.1 4.8-1.5 9.4-4.1 14.2l-.7 1.3c-1 1.7-1.8 2.9-2.5 3.8-.1.1-.2.2-.4.2H7.7c-.2 0-.3-.1-.4-.2-.9-1.1-1.7-2.4-2.5-3.8-.1-.1-.1-.2-.2-.3 0-.1-.1-.1-.1-.2l-.4-.7A33.5 33.5 0 0 1 0 20.6c-.1-4.4.9-8.8 3-13.3.3-.7.7-1.5 1.2-2.3L7.4.1c.1 0 .3-.1.4-.1h234.5c.2 0 .3.1.4.2l3.1 4.8z"/>
    <path d="M7,0 L243,0 C247.666667,6.83333333 250,13.6666667 250,20.5 C250,27.3333333 247.666667,34.1666667 243,41 L7,41 C2.33333333,34.1666667 3.23236808e-15,27.3333333 0,20.5 C9.02056208e-16,13.6666667 2.33333333,6.83333333 7,0 Z M1,20.5 C1,26.9767432 3.16975599,33.472079 7.53124475,40 L242.468755,40 C246.830244,33.472079 249,26.9767432 249,20.5 C249,14.0232568 246.830244,7.52792099 242.468755,1 L7.53124475,1 C3.16975599,7.52792099 1,14.0232568 1,20.5 Z" fill="#FFFFFF" fill-rule="nonzero"></path>
    <path d="M148.3,30.3 L134.8,30.3 L134.8,29.6 L137.4,28.6 L137.4,12.7 L134.8,11.7 L134.8,11 L148.1,11 L148.1,16.2 L147.4,16.2 L146,13 L140,13 L140,19.5 L144.2,19.5 L145.2,16.9 L145.8,16.9 L145.8,24.1 L145.2,24.1 L144.2,21.5 L140,21.5 L140,28.2 L146.3,28.2 L148.1,25 L148.8,25 L148.3,30.3 Z M160.2,12.8 C159.7,12.6 159.1,12.6 158.2,12.6 C157.7,12.6 157.2,12.7 156.8,12.8 C156.3,12.9 155.9,13.1 155.6,13.4 C155.3,13.7 155,14 154.8,14.3 C154.6,14.7 154.5,15.1 154.5,15.6 C154.5,16.3 154.7,17 155.2,17.4 C155.7,17.9 156.2,18.3 156.9,18.6 C157.6,19 158.3,19.3 159.1,19.6 C159.9,19.9 160.6,20.3 161.3,20.8 C162,21.3 162.6,21.8 163,22.5 C163.5,23.2 163.7,24.1 163.7,25.1 C163.7,26 163.5,26.7 163.2,27.4 C162.9,28.1 162.4,28.7 161.9,29.1 C161.3,29.6 160.7,29.9 159.9,30.2 C159.1,30.5 158.3,30.6 157.4,30.6 C156.6,30.6 155.9,30.5 155.3,30.4 C154.7,30.3 154.2,30.2 153.7,30 C153.2,29.8 152.9,29.7 152.6,29.5 C152.3,29.3 152,29.2 151.8,29 L151.8,24.6 L152.6,24.6 L153.8,27.8 C154.1,28 154.6,28.2 155.1,28.3 C155.7,28.4 156.4,28.5 157.3,28.5 C157.7,28.5 158.2,28.4 158.7,28.3 C159.2,28.2 159.6,28 160,27.7 C160.4,27.4 160.7,27.1 161,26.7 C161.3,26.3 161.4,25.8 161.4,25.2 C161.4,24.4 161.2,23.8 160.7,23.3 C160.2,22.8 159.7,22.4 159,22 C158.3,21.6 157.6,21.3 156.8,21 C156,20.7 155.2,20.3 154.6,19.8 C153.9,19.3 153.3,18.8 152.9,18.1 C152.4,17.4 152.2,16.5 152.2,15.4 C152.2,14.6 152.4,13.9 152.7,13.3 C153,12.7 153.5,12.2 154.1,11.7 C154.7,11.3 155.3,11 156.1,10.8 C156.8,10.6 157.6,10.5 158.4,10.5 C159.2,10.5 159.9,10.5 160.5,10.6 C161.1,10.7 161.6,10.8 162,10.9 C162.4,11 162.8,11.2 163.1,11.3 C163.4,11.5 163.7,11.6 163.9,11.8 L163.9,16.4 L163.1,16.4 L161.4,13.3 C161.1,13.1 160.7,13 160.2,12.8 Z M179.8,13 L175.8,13 L175.8,28.5 L178.9,29.5 L178.9,30.2 L170.1,30.2 L170.1,29.5 L173.2,28.5 L173.2,13 L169.1,13 L167.7,16.5 L166.9,16.5 L166.9,11 L182,11 L182,16.5 L181.2,16.5 L179.8,13 Z M191.3,11 L193.7,11 L200.9,28.5 L203.2,29.6 L203.2,30.3 L195.8,30.3 L195.8,29.6 L198.1,28.5 L196.3,23.9 L188.1,23.9 L188.1,24 L186.3,28.6 L188.6,29.7 L188.6,30.4 L181.3,30.4 L181.3,29.7 L183.6,28.5 L191.3,11 Z M193,15.5 L192.7,14.6 C192.6,14.3 192.5,14 192.5,13.8 C192.4,13.6 192.4,13.4 192.4,13.4 C192.4,13.4 192.4,13.5 192.3,13.7 C192.2,13.9 192.2,14.1 192.1,14.4 L191.8,15.3 L191.5,16.2 L189.2,21.8 L195.8,21.8 L193.3,16.3 C193.2,16.1 193.1,15.8 193,15.5 Z M214.9,13 L210.9,13 L210.9,28.5 L214,29.5 L214,30.2 L205.2,30.2 L205.2,29.5 L208.3,28.5 L208.3,13 L204.2,13 L202.8,16.5 L202,16.5 L202,11 L217.1,11 L217.1,16.5 L216.3,16.5 L214.9,13 Z M219.3,30.3 L219.3,29.6 L221.9,28.6 L221.9,12.7 L219.3,11.7 L219.3,11 L232.6,11 L232.6,16.2 L231.9,16.2 L230.5,13 L224.5,13 L224.5,19.5 L228.7,19.5 L229.7,16.9 L230.3,16.9 L230.3,24.1 L229.7,24.1 L228.7,21.5 L224.5,21.5 L224.5,28.2 L230.8,28.2 L232.6,25 L233.3,25 L232.8,30.3 L219.3,30.3 Z" fill="#FFFFFF" fill-rule="nonzero"></path>
    <path d="M30.1,30.3 L16.7,30.3 L16.7,29.6 L19.3,28.6 L19.3,12.7 L16.7,11.7 L16.7,11 L24.4,11 L24.4,11.7 L21.9,12.7 L21.9,28.3 L28,28.3 L29.9,24.7 L30.7,24.7 L30.1,30.3 L30.1,30.3 Z M36.8,23.5 C36.8,25.2 37.1,26.4 37.9,27.3 C38.6,28.2 39.9,28.6 41.7,28.6 C42.7,28.6 43.5,28.5 44.1,28.2 C44.8,27.9 45.3,27.5 45.7,27 C46.1,26.5 46.4,25.9 46.6,25.2 C46.8,24.5 46.9,23.7 46.9,22.9 L46.9,12.7 L44.4,11.7 L44.4,11 L51.8,11 L51.8,11.7 L49.2,12.7 L49.2,22.6 C49.2,23.9 49.1,25 48.8,26 C48.5,27 48.1,27.8 47.5,28.5 C46.9,29.2 46.1,29.7 45.2,30.1 C44.2,30.5 43.1,30.6 41.7,30.6 C39.1,30.6 37.2,30 36,28.7 C34.8,27.5 34.2,25.6 34.3,23.2 L34.3,12.7 L31.8,11.7 L31.8,11 L39.5,11 L39.5,11.7 L36.9,12.7 L36.9,23.5 L36.8,23.5 Z M58.7,12.7 L61.4,16.5 L62,17.4 C62.2,17.7 62.3,17.9 62.5,18.1 C62.6,18.3 62.8,18.5 62.9,18.7 C63,18.5 63.2,18.2 63.3,18 C63.5,17.8 63.6,17.6 63.8,17.3 L64.4,16.4 L67.1,12.7 L65,11.7 L65,11 L72.2,11 L72.2,11.7 L69.9,12.7 L64.1,20.2 L70.5,28.5 L72.7,29.5 L72.7,30.2 L65,30.2 L65,29.5 L67.3,28.5 L64,24.1 C63.7,23.7 63.5,23.4 63.3,23.1 C63.1,22.8 63,22.6 62.8,22.4 C62.6,22.2 62.5,22 62.5,21.8 C62.4,22 62.3,22.2 62.1,22.4 C62,22.6 61.8,22.8 61.6,23.1 C61.4,23.4 61.2,23.7 60.9,24.1 L57.8,28.5 L60.1,29.5 L60.1,30.2 L53,30.2 L53,29.5 L55.2,28.5 L61.3,20.3 L55.6,12.6 L53.4,11.6 L53.4,10.9 L60.8,10.9 L60.8,11.6 L58.7,12.7 Z M79.3,23.5 C79.3,25.2 79.6,26.4 80.4,27.3 C81.1,28.2 82.4,28.6 84.2,28.6 C85.2,28.6 86,28.5 86.6,28.2 C87.3,27.9 87.8,27.5 88.2,27 C88.6,26.5 88.9,25.9 89.1,25.2 C89.3,24.5 89.4,23.7 89.4,22.9 L89.4,12.7 L86.9,11.7 L86.9,11 L94.3,11 L94.3,11.7 L91.7,12.7 L91.7,22.6 C91.7,23.9 91.6,25 91.3,26 C91,27 90.6,27.8 90,28.5 C89.4,29.2 88.6,29.7 87.7,30.1 C86.7,30.5 85.6,30.6 84.2,30.6 C81.6,30.6 79.7,30 78.5,28.7 C77.3,27.5 76.7,25.6 76.8,23.2 L76.8,12.7 L74.3,11.7 L74.3,11 L82,11 L82,11.7 L79.4,12.7 L79.4,23.5 L79.3,23.5 Z M111.2,16 C111.2,16.9 111.1,17.6 110.9,18.2 C110.7,18.8 110.4,19.3 110,19.7 C109.6,20.1 109.2,20.4 108.6,20.6 C108.1,20.8 107.5,21 106.9,21.2 L110.7,28.5 L113,29.5 L113,30.2 L108.9,30.2 L104.1,21.4 L101.4,21.4 L101.4,28.4 L103.9,29.4 L103.9,30.1 L96.2,30.1 L96.2,29.4 L98.8,28.4 L98.8,12.6 L96.3,11.6 L96.3,10.9 L105.8,10.9 C106.2,10.9 106.7,10.9 107.1,11 C107.6,11.1 108,11.2 108.5,11.4 C109,11.6 109.4,11.9 109.8,12.2 C110.2,12.6 110.5,13.1 110.7,13.7 C111.1,14.3 111.2,15.1 111.2,16 L111.2,16 Z M101.4,19.7 L103.9,19.7 C104.5,19.7 105.1,19.7 105.6,19.6 C106.2,19.6 106.7,19.4 107.1,19.2 C107.5,19 107.9,18.6 108.2,18.1 C108.5,17.6 108.6,17 108.6,16.1 C108.6,15.3 108.5,14.6 108.2,14.1 C107.9,13.6 107.6,13.3 107.2,13.1 C106.8,12.9 106.3,12.7 105.8,12.7 C105.3,12.6 104.8,12.6 104.3,12.6 L101.4,12.6 L101.4,19.7 L101.4,19.7 Z M130.5,12.7 L123.8,21.2 L123.8,28.5 L127,29.5 L127,30.2 L118,30.2 L118,29.5 L121.2,28.5 L121.2,21.4 L114.7,12.7 L112.4,11.7 L112.4,11 L119.9,11 L119.9,11.7 L117.8,12.7 L121,17.1 C121.4,17.7 121.8,18.3 122.1,18.7 C122.4,19.1 122.6,19.4 122.6,19.5 C122.6,19.4 122.8,19.1 123.2,18.6 C123.5,18.1 123.9,17.5 124.4,16.9 L127.5,12.8 L127.6,12.7 L125.5,11.7 L125.5,11 L132.7,11 L132.7,11.7 L130.5,12.7 L130.5,12.7 Z" fill="#FFD35B" fill-rule="nonzero"></path>
</svg>